<?xml version="1.0" encoding="utf-8"?><svg width="24" height="24" viewBox="0 0 24 24" fill="none" xmlns="http://www.w3.org/2000/svg">
<path d="M0.25 12.0029C0.25 5.51358 5.51065 0.25293 12 0.25293C18.4893 0.25293 23.75 5.51358 23.75 12.0029C23.75 18.4923 18.4893 23.7529 12 23.7529C5.51065 23.7529 0.25 18.4923 0.25 12.0029Z" fill="white" />
<path d="M0.25 12.0029C0.25 5.51358 5.51065 0.25293 12 0.25293C18.4893 0.25293 23.75 5.51358 23.75 12.0029C23.75 18.4923 18.4893 23.7529 12 23.7529C5.51065 23.7529 0.25 18.4923 0.25 12.0029Z" stroke="#C9CED4" stroke-width="0.5" />
<path d="M19.9797 11.4608C19.6802 7.05252 15.8645 3.7226 11.4568 4.02212C9.26157 4.17188 7.33325 5.1946 5.98797 6.72612L5.98413 6.72356C5.97453 6.73572 5.96621 6.74788 5.95789 6.76068C4.62157 8.30244 3.86957 10.3504 4.01869 12.5463C4.03277 12.7562 4.05709 12.961 4.08717 13.1652C4.08717 13.1748 4.08973 13.1831 4.09101 13.1927C4.11149 13.3271 4.13517 13.4615 4.16077 13.5927C4.18509 13.7143 4.21261 13.8352 4.24269 13.9556C5.16685 17.64 8.61837 20.2493 12.5422 19.9824C16.9493 19.6829 20.2805 15.8672 19.981 11.4589L19.9797 11.4608ZM18.2382 11.5799C18.2754 12.1226 18.2408 12.6538 18.1435 13.1658C18.1435 13.1632 18.141 13.1607 18.141 13.1575C17.5598 11.7405 16.413 10.7165 15.405 10.1508C15.6091 7.74948 14.7944 6.73636 13.8715 6.57188C13.147 6.43556 12.4494 6.913 12.3131 7.63748C12.308 7.66308 12.3042 7.68932 12.301 7.71556C12.2069 8.44644 12.7227 9.11588 13.4536 9.20996L13.4568 9.2106C13.5208 9.21892 13.5842 9.22148 13.6456 9.2202C13.6501 9.30596 13.6526 9.39172 13.6526 9.47748C12.7995 9.26692 12.0027 9.22404 11.2757 9.28996C11.0024 9.30788 10.7304 9.34244 10.461 9.39236C10.5518 8.58148 10.8565 7.67012 11.4466 7.00452C12.0174 6.3594 12.8661 5.9914 13.7915 6.08612C13.9669 6.10404 14.1544 6.14756 14.3227 6.20388C14.331 6.20644 14.3394 6.209 14.3464 6.21028C16.4904 7.08388 18.0693 9.11972 18.2363 11.5799H18.2382ZM12.6619 12.8016C12.6619 12.8016 12.6619 12.8029 12.6606 12.8042C12.4584 13.0948 12.2293 13.3661 11.9758 13.6138C11.5925 13.2087 11.268 12.7524 11.012 12.257C10.9998 12.2308 10.9864 12.2077 10.9736 12.1815V12.1789C10.8232 11.8583 10.7035 11.5236 10.6152 11.1805C11.1835 11.0461 11.7403 10.9968 12.2734 11.0231L12.3586 11.0269H12.3611C12.6952 11.0544 13.0427 11.1159 13.403 11.2144C13.236 11.7764 12.987 12.3108 12.6638 12.7997L12.6619 12.8016ZM9.92909 6.10212L9.92525 6.10724C8.98765 7.31812 8.67533 8.82276 8.68877 9.97796C6.50637 11.002 6.03789 12.2135 6.35597 13.0954C6.36365 13.1204 6.37389 13.1434 6.38349 13.1671C6.66829 13.8474 7.45101 14.1687 8.13197 13.8845C8.81229 13.5997 9.13357 12.817 8.84941 12.136C8.82445 12.0778 8.79565 12.0215 8.76301 11.9677C8.83149 11.9223 8.90573 11.8775 8.98509 11.8308C9.22829 12.6756 9.58861 13.3892 10.0091 13.9856C10.1614 14.2116 10.3253 14.4292 10.5045 14.6384C9.75693 14.9655 8.81485 15.1575 7.94253 14.9796C7.09901 14.8074 6.35597 14.257 5.97389 13.4077C5.90093 13.2413 5.84589 13.0672 5.80941 12.8893C5.78701 12.7364 5.76973 12.5821 5.75885 12.4279C5.56429 9.56196 7.34157 7.01156 9.92909 6.10212ZM12.4238 18.2423C10.7221 18.3588 9.13101 17.7783 7.92909 16.746C9.44589 16.9527 10.9058 16.4708 11.8997 15.8807C13.8779 17.2592 15.1624 17.0596 15.7672 16.3434C16.2478 15.7834 16.1832 14.9399 15.6232 14.4592C15.6034 14.442 15.5829 14.426 15.5618 14.41C14.9749 13.9626 14.1365 14.0759 13.6891 14.6628L13.6885 14.6634C13.6501 14.714 13.6162 14.769 13.5861 14.8234C13.5138 14.7863 13.437 14.7453 13.3589 14.6999C13.9163 14.1245 14.3733 13.4602 14.7099 12.7338C14.8309 12.488 14.9365 12.2352 15.0274 11.9767C15.6846 12.4618 16.3227 13.1799 16.605 14.0247C16.8776 14.8407 16.7733 15.761 16.2286 16.5156C16.1211 16.6621 15.9982 16.7965 15.8619 16.9168L15.8568 16.922C14.8725 17.6976 13.6763 18.1572 12.4258 18.2404L12.4238 18.2423Z" fill="url(#paint0_linear_23166_37073)" />
<path d="M13.8714 6.57033C13.7216 6.54153 13.5674 6.54025 13.417 6.56521C14.1824 6.98121 14.7398 8.14089 14.4467 10.4302C14.3501 11.1745 14.1312 11.8984 13.799 12.5716C13.513 13.186 13.1411 13.7569 12.6938 14.2664C12.9056 14.4257 13.1277 14.5716 13.3581 14.7035C13.9155 14.1288 14.3725 13.4638 14.7098 12.7374C15.0426 12.0641 15.2608 11.3409 15.3574 10.596C15.7069 7.87145 14.8494 6.7466 13.8715 6.57188L13.8714 6.57033Z" fill="url(#paint1_linear_23166_37073)" />
<path d="M14.4471 10.4285C14.7402 8.14052 14.1828 6.97956 13.4174 6.56356C13.3873 6.5674 13.3585 6.57444 13.3284 6.58148C14.0772 7.01284 14.6167 8.1706 14.3281 10.4285C14.2314 11.1728 14.0126 11.8967 13.6804 12.57C13.4046 13.1626 13.0487 13.7149 12.6218 14.2103C12.6462 14.2295 12.6698 14.2474 12.6942 14.2647C13.1409 13.7546 13.5127 13.1844 13.7988 12.57C14.1316 11.8967 14.3505 11.1735 14.4471 10.4285Z" fill="url(#paint2_linear_23166_37073)" />
<path d="M11.5383 15.6187C11.466 15.5643 11.3975 15.5067 11.3278 15.4491C10.1981 15.9201 8.63333 16.2158 7.07813 15.8542C7.33157 16.1787 7.61637 16.4769 7.92805 16.7457C9.44485 16.9524 10.9047 16.4705 11.8986 15.8804C11.7764 15.7953 11.6561 15.7076 11.537 15.6174L11.5383 15.6187Z" fill="url(#paint3_linear_23166_37073)" />
<path d="M11.3278 15.4491C11.2938 15.4203 11.2575 15.3916 11.2249 15.3628C10.087 15.8172 8.51387 16.0898 6.9625 15.702C7.00091 15.7525 7.03973 15.8043 7.07813 15.8542C8.63333 16.2158 10.1981 15.9201 11.3278 15.4491Z" fill="url(#paint4_linear_23166_37073)" />
<path d="M6.35708 13.097C6.36476 13.1213 6.375 13.145 6.3846 13.168C6.43516 13.2884 6.50108 13.3965 6.58044 13.4938C6.55868 12.6234 7.28444 11.5591 9.4118 10.6695C10.1049 10.3815 10.841 10.2094 11.5898 10.1601C12.265 10.0999 12.9459 10.137 13.6109 10.2695C13.6454 9.98215 13.6589 9.71399 13.6563 9.47655C12.88 9.28135 12.0755 9.21799 11.2781 9.28903C10.5286 9.33831 9.7926 9.51047 9.09948 9.79847C6.56572 10.8583 6.01916 12.1632 6.35772 13.0976L6.35708 13.097Z" fill="url(#paint5_linear_23166_37073)" />
<path d="M9.41152 10.671C7.28416 11.5612 6.5584 12.6249 6.58016 13.4953C6.59936 13.5184 6.61984 13.5408 6.64032 13.5625C6.63904 12.6985 7.37248 11.6528 9.47168 10.7734C10.1648 10.4854 10.9008 10.3132 11.6496 10.2639C12.3005 10.2063 12.9571 10.2383 13.599 10.3599C13.6035 10.3298 13.6067 10.2998 13.6099 10.2697C12.945 10.1378 12.2646 10.1007 11.5888 10.1602C10.84 10.2095 10.104 10.3817 9.41088 10.6697L9.41152 10.671Z" fill="url(#paint6_linear_23166_37073)" />
<path d="M15.3613 10.594C15.3504 10.6843 15.3357 10.772 15.3203 10.8609C16.2925 11.6033 17.3318 12.8116 17.7971 14.338C17.9507 13.956 18.0672 13.5598 18.1434 13.1553C17.5642 11.7384 16.4166 10.715 15.4093 10.1499C15.3971 10.2939 15.3818 10.4404 15.3626 10.5934L15.3613 10.594Z" fill="url(#paint7_linear_23166_37073)" />
<path d="M15.319 10.8608C15.3106 10.9044 15.3036 10.9498 15.2953 10.994C16.2578 11.7524 17.2806 12.978 17.7202 14.5152C17.7458 14.4564 17.7708 14.3975 17.7938 14.3386C17.3286 12.8122 16.2905 11.6045 15.317 10.8608H15.319Z" fill="url(#paint8_linear_23166_37073)" />
<path d="M15.7678 16.3418C15.867 16.2253 15.9458 16.0928 16.0008 15.9501C15.2571 16.4045 13.9739 16.3072 12.1384 14.9095C11.5419 14.4538 11.0242 13.9021 10.6075 13.2775C10.2177 12.7226 9.90925 12.1152 9.69165 11.4733C9.42605 11.5872 9.18669 11.7101 8.98125 11.8304C9.20077 12.6004 9.54765 13.3287 10.0078 13.984C10.4187 14.5972 10.9307 15.152 11.5387 15.616C13.7237 17.2807 15.1272 17.1015 15.7666 16.3412L15.7678 16.3418Z" fill="url(#paint9_linear_23166_37073)" />
<path d="M12.1392 14.9096C13.9734 16.3073 15.2578 16.4052 16.0008 15.9501C16.0117 15.9213 16.0214 15.892 16.0298 15.8644C15.2822 16.2984 14.0086 16.1844 12.1994 14.8065C11.6029 14.3508 11.0851 13.7992 10.6685 13.1745C10.2928 12.6395 9.99328 12.0552 9.77696 11.4382C9.74816 11.4504 9.72063 11.4612 9.69376 11.4734C9.91136 12.1153 10.2198 12.7233 10.6096 13.2782C11.0205 13.8913 11.5325 14.4462 12.1405 14.9102L12.1392 14.9096Z" fill="url(#paint10_linear_23166_37073)" />
<path d="M9.09755 9.79606C9.18075 9.7615 9.2646 9.73014 9.34907 9.69878C9.50524 8.48598 10.0326 6.98134 11.1225 5.81589C10.7142 5.87478 10.3129 5.97077 9.92444 6.10581C8.9862 7.31669 8.67387 8.82134 8.68795 9.97718C8.81787 9.91574 8.95356 9.85558 9.09627 9.7967L9.09755 9.79606Z" fill="url(#paint11_linear_23166_37073)" />
<path d="M9.35 9.69873C9.39288 9.68401 9.43384 9.66737 9.47608 9.65201C9.65144 8.43857 10.2018 6.94097 11.3122 5.7909C11.2495 5.79793 11.1862 5.80626 11.1234 5.81458C10.0335 6.9813 9.5068 8.48402 9.35064 9.69745L9.35 9.69873Z" fill="url(#paint12_linear_23166_37073)" />
<path d="M11.4568 4.02212C9.26094 4.17124 7.33325 5.19396 5.98797 6.72612L5.95789 6.76068C6.21901 7.02116 7.07654 7.53304 7.42278 7.74616C8.11334 7.00248 8.97414 6.438 9.93158 6.102C9.99878 6.01432 10.0698 5.92792 10.1441 5.84472C11.0465 4.8252 12.2804 4.28696 13.7121 4.28696C13.8708 4.28696 14.1953 4.3132 14.2023 4.3132C13.3114 4.05656 12.3822 3.95748 11.4568 4.02212Z" fill="url(#paint13_linear_23166_37073)" />
<path d="M12.4242 18.2436C10.7225 18.36 9.13143 17.7796 7.92951 16.7472C7.81687 16.7325 7.70423 16.714 7.59287 16.6909C6.25783 16.4183 5.17367 15.6189 4.45879 14.3799C4.38007 14.2429 4.30839 14.1021 4.24375 13.9581C5.16791 17.6426 8.61944 20.2519 12.542 19.985C12.5599 19.5812 12.4409 18.6436 12.423 18.2436H12.4242Z" fill="url(#paint14_linear_23166_37073)" />
<path d="M19.9797 11.4608C19.7333 11.4359 18.5339 11.5306 18.2382 11.5799C18.2754 12.1226 18.2408 12.6538 18.1435 13.1658C18.1845 13.2669 18.2241 13.3711 18.2599 13.476C18.6913 14.7688 18.5409 16.1064 17.826 17.3468C17.7466 17.4837 17.6609 17.6162 17.5687 17.7442C17.5687 17.7442 17.5726 17.741 17.5738 17.7384C19.1994 16.157 20.1454 13.901 19.9796 11.4626L19.9797 11.4608Z" fill="url(#paint15_linear_23166_37073)" />
<path d="M13.7944 6.08484C13.9698 6.10276 14.1573 6.14628 14.3256 6.2026C14.3333 6.20516 14.3422 6.20772 14.3486 6.209C15.0354 6.48932 15.667 6.88868 16.2149 7.38916C16.2149 7.38916 16.2174 7.39044 16.2187 7.39172C16.4818 7.0922 16.9867 6.76196 16.9867 6.76196C16.9867 6.76196 16.2136 5.97028 15.029 5.72388C14.2008 5.55108 12.332 5.38596 11.1531 7.39108L11.164 7.3802C11.2517 7.24836 11.3432 7.11972 11.4488 7.00196C12.0197 6.35812 12.8683 5.99012 13.7944 6.08484Z" fill="url(#paint16_linear_23166_37073)" />
<path d="M16.2287 16.5166C16.1212 16.6632 15.9983 16.7976 15.862 16.9179C15.8569 16.923 15.8498 16.9288 15.8441 16.9345C15.2578 17.3889 14.5961 17.7358 13.8889 17.9598C13.8889 17.9598 13.8863 17.9598 13.8844 17.9611C14.013 18.3387 14.0463 18.9416 14.0463 18.9416C14.0463 18.9416 15.1183 18.6676 15.9234 17.7652C16.486 17.1342 17.565 15.5982 16.4175 13.5745C16.4175 13.5745 16.4188 13.5809 16.422 13.5892C16.493 13.7307 16.5577 13.8753 16.607 14.0244C16.8796 14.8404 16.7753 15.7608 16.2306 16.5147L16.2287 16.5166Z" fill="url(#paint17_linear_23166_37073)" />
<path d="M5.97707 13.4108C5.90411 13.2444 5.84843 13.0703 5.81259 12.8917C5.81131 12.884 5.80875 12.8751 5.80747 12.8668C5.70635 12.1288 5.73899 11.3813 5.89643 10.6613V10.6568C5.50475 10.58 4.96651 10.3061 4.96651 10.3061C4.96651 10.3061 4.66763 11.373 5.04715 12.5199C5.31275 13.3231 6.10251 15.0255 8.42827 15.0434C8.42827 15.0434 8.42187 15.0421 8.41355 15.0389C8.25611 15.0293 8.09867 15.0133 7.94443 14.9813C7.10091 14.8085 6.35723 14.2581 5.97515 13.4095L5.97707 13.4108Z" fill="url(#paint18_linear_23166_37073)" />
<path d="M13.4577 9.20926C13.5217 9.21694 13.585 9.22014 13.6465 9.21886C13.6465 9.21886 13.6042 8.38814 13.5025 7.96062C13.4001 7.53502 13.249 7.2515 13.0846 7.0915C12.9655 6.9763 12.5918 6.83358 12.3018 7.71294C12.2071 8.44382 12.7236 9.11326 13.4545 9.20798C13.4558 9.20798 13.4564 9.20862 13.4577 9.20926Z" fill="url(#paint19_linear_23166_37073)" />
<path d="M8.85133 12.1385C8.82637 12.0803 8.79757 12.0246 8.76493 11.9702C8.76493 11.9702 8.06541 12.422 7.74733 12.7228C7.42989 13.0243 7.25965 13.2969 7.20397 13.5196C7.16429 13.6796 7.22701 14.0745 8.13389 13.8864C8.81485 13.6022 9.13549 12.8195 8.85133 12.1385Z" fill="url(#paint20_linear_23166_37073)" />
<path d="M13.6899 14.662C13.6515 14.7126 13.6176 14.7676 13.5875 14.822C13.5875 14.822 14.3286 15.2016 14.7485 15.3264C15.169 15.4512 15.489 15.462 15.7098 15.3987C15.8685 15.3539 16.1782 15.1004 15.5632 14.4105C14.9763 13.9632 14.1379 14.0764 13.6906 14.6633L13.6899 14.664V14.662Z" fill="url(#paint21_linear_23166_37073)" />
<path d="M13.4034 11.2155C13.2351 11.7742 12.9996 12.2824 12.711 12.7297C12.6956 12.7528 12.6809 12.7764 12.6642 12.8008C12.6642 12.8008 12.6642 12.802 12.663 12.8033C12.4607 13.0939 12.2316 13.3652 11.9782 13.6129C12.1618 13.8075 12.359 13.9963 12.5766 14.1755C12.8242 14.37 13.086 14.546 13.3593 14.7009C13.9167 14.1262 14.3737 13.4612 14.711 12.7348C14.8313 12.4891 14.9375 12.2363 15.0284 11.9777C14.7468 11.771 14.462 11.6052 14.199 11.4932C13.9398 11.3825 13.6735 11.2897 13.4022 11.2155H13.4034Z" fill="url(#paint22_linear_23166_37073)" />
<path d="M7.92951 16.7472C9.44631 16.954 10.9048 16.472 11.8994 15.8819C11.7771 15.7968 11.6574 15.7089 11.5383 15.6187C11.1601 15.3294 10.8126 15.0019 10.5029 14.6403C9.75534 14.9673 8.81326 15.1587 7.94094 14.9808C7.09742 14.8086 6.35438 14.2582 5.9723 13.4096C5.89934 13.2432 5.8443 13.0691 5.80782 12.8905C6.02862 14.4374 6.80878 15.7872 7.9275 16.7472L7.92951 16.7472Z" fill="url(#paint23_linear_23166_37073)" />
<path d="M11.9773 13.6128C11.5939 13.2077 11.2694 12.7514 11.0134 12.256C11.0013 12.2298 10.9872 12.2068 10.975 12.1805V12.178C10.8246 11.8573 10.705 11.5226 10.6166 11.1796C10.3562 11.241 10.0951 11.3178 9.83202 11.4164C9.54018 11.5328 9.2573 11.6711 8.98594 11.8298C9.22978 12.6746 9.58946 13.3882 10.0099 13.9847C10.1623 14.2106 10.3267 14.4282 10.5059 14.6375C10.8259 14.498 11.1126 14.3322 11.3405 14.1607C11.5651 13.9917 11.7782 13.808 11.9786 13.6103L11.9773 13.6128Z" fill="url(#paint24_linear_23166_37073)" />
<path d="M9.92599 6.10786C8.98775 7.3181 8.67469 8.82276 8.68877 9.97796C8.82381 9.9146 8.96087 9.85378 9.09911 9.79618C9.53815 9.61314 9.99511 9.47682 10.4623 9.38978C10.5532 8.5789 10.8578 7.66754 11.4479 7.00194C12.0188 6.35682 12.8674 5.98882 13.7935 6.08354C13.9689 6.10146 14.1564 6.14498 14.3247 6.2013C14.3324 6.20386 14.3407 6.20642 14.3478 6.2077C13.469 5.8493 12.5199 5.69698 11.5734 5.7629C10.9986 5.80258 10.4482 5.91906 9.92792 6.1021C9.92664 6.10338 9.92536 6.10594 9.92408 6.10722L9.92599 6.10786Z" fill="url(#paint25_linear_23166_37073)" />
<path d="M18.1426 13.1547C17.5622 11.7377 16.4146 10.7131 15.4073 10.1479C15.3951 10.2919 15.3804 10.4398 15.3593 10.5947C15.2985 11.0664 15.1878 11.5304 15.0297 11.979C15.687 12.4641 16.325 13.1822 16.6073 14.027C16.8793 14.843 16.7756 15.7633 16.231 16.5172C16.1234 16.6638 16.0006 16.7982 15.8642 16.9185L15.8591 16.9236C17.0335 16.0008 17.8642 14.6702 18.1497 13.1643C18.1497 13.1617 18.1471 13.1585 18.1471 13.156L18.1426 13.1547Z" fill="url(#paint26_linear_23166_37073)" />
<path d="M10.457 10.3533C10.4902 10.6324 10.5427 10.9088 10.6144 11.1802C11.1827 11.0458 11.7395 10.9965 12.2726 11.0228L12.3578 11.0266H12.3603C12.6944 11.0541 13.0419 11.1156 13.4022 11.2141C13.479 10.9581 13.543 10.6925 13.5898 10.4154C13.6403 10.0704 13.655 9.75108 13.6538 9.47332C12.8006 9.26276 12.0038 9.21988 11.2774 9.2858C11.0042 9.30372 10.7322 9.33828 10.4627 9.3882C10.4243 9.73572 10.423 10.066 10.4582 10.3508L10.457 10.3533Z" fill="url(#paint27_linear_23166_37073)" />
<defs>
<linearGradient id="paint0_linear_23166_37073" x1="4" y1="20" x2="18" y2="5" gradientUnits="userSpaceOnUse">
<stop offset="0.150205" stop-color="#B90263" />
<stop offset="0.553443" stop-color="#015DC3" />
<stop offset="1" stop-color="#0AE2FF" />
</linearGradient>
<linearGradient id="paint1_linear_23166_37073" x1="4" y1="20" x2="18" y2="5" gradientUnits="userSpaceOnUse">
<stop offset="0.150205" stop-color="#B90263" />
<stop offset="0.553443" stop-color="#015DC3" />
<stop offset="1" stop-color="#0AE2FF" />
</linearGradient>
<linearGradient id="paint2_linear_23166_37073" x1="4" y1="20" x2="18" y2="5" gradientUnits="userSpaceOnUse">
<stop offset="0.150205" stop-color="#B90263" />
<stop offset="0.553443" stop-color="#015DC3" />
<stop offset="1" stop-color="#0AE2FF" />
</linearGradient>
<linearGradient id="paint3_linear_23166_37073" x1="4" y1="20" x2="18" y2="5" gradientUnits="userSpaceOnUse">
<stop offset="0.150205" stop-color="#B90263" />
<stop offset="0.553443" stop-color="#015DC3" />
<stop offset="1" stop-color="#0AE2FF" />
</linearGradient>
<linearGradient id="paint4_linear_23166_37073" x1="4" y1="20" x2="18" y2="5" gradientUnits="userSpaceOnUse">
<stop offset="0.150205" stop-color="#B90263" />
<stop offset="0.553443" stop-color="#015DC3" />
<stop offset="1" stop-color="#0AE2FF" />
</linearGradient>
<linearGradient id="paint5_linear_23166_37073" x1="4" y1="20" x2="18" y2="5" gradientUnits="userSpaceOnUse">
<stop offset="0.150205" stop-color="#B90263" />
<stop offset="0.553443" stop-color="#015DC3" />
<stop offset="1" stop-color="#0AE2FF" />
</linearGradient>
<linearGradient id="paint6_linear_23166_37073" x1="4" y1="20" x2="18" y2="5" gradientUnits="userSpaceOnUse">
<stop offset="0.150205" stop-color="#B90263" />
<stop offset="0.553443" stop-color="#015DC3" />
<stop offset="1" stop-color="#0AE2FF" />
</linearGradient>
<linearGradient id="paint7_linear_23166_37073" x1="4" y1="20" x2="18" y2="5" gradientUnits="userSpaceOnUse">
<stop offset="0.150205" stop-color="#B90263" />
<stop offset="0.553443" stop-color="#015DC3" />
<stop offset="1" stop-color="#0AE2FF" />
</linearGradient>
<linearGradient id="paint8_linear_23166_37073" x1="4" y1="20" x2="18" y2="5" gradientUnits="userSpaceOnUse">
<stop offset="0.150205" stop-color="#B90263" />
<stop offset="0.553443" stop-color="#015DC3" />
<stop offset="1" stop-color="#0AE2FF" />
</linearGradient>
<linearGradient id="paint9_linear_23166_37073" x1="4" y1="20" x2="18" y2="5" gradientUnits="userSpaceOnUse">
<stop offset="0.150205" stop-color="#B90263" />
<stop offset="0.553443" stop-color="#015DC3" />
<stop offset="1" stop-color="#0AE2FF" />
</linearGradient>
<linearGradient id="paint10_linear_23166_37073" x1="4" y1="20" x2="18" y2="5" gradientUnits="userSpaceOnUse">
<stop offset="0.150205" stop-color="#B90263" />
<stop offset="0.553443" stop-color="#015DC3" />
<stop offset="1" stop-color="#0AE2FF" />
</linearGradient>
<linearGradient id="paint11_linear_23166_37073" x1="4" y1="20" x2="18" y2="5" gradientUnits="userSpaceOnUse">
<stop offset="0.150205" stop-color="#B90263" />
<stop offset="0.553443" stop-color="#015DC3" />
<stop offset="1" stop-color="#0AE2FF" />
</linearGradient>
<linearGradient id="paint12_linear_23166_37073" x1="4" y1="20" x2="18" y2="5" gradientUnits="userSpaceOnUse">
<stop offset="0.150205" stop-color="#B90263" />
<stop offset="0.553443" stop-color="#015DC3" />
<stop offset="1" stop-color="#0AE2FF" />
</linearGradient>
<linearGradient id="paint13_linear_23166_37073" x1="4" y1="20" x2="18" y2="5" gradientUnits="userSpaceOnUse">
<stop offset="0.150205" stop-color="#B90263" />
<stop offset="0.553443" stop-color="#015DC3" />
<stop offset="1" stop-color="#0AE2FF" />
</linearGradient>
<linearGradient id="paint14_linear_23166_37073" x1="4" y1="20" x2="18" y2="5" gradientUnits="userSpaceOnUse">
<stop offset="0.150205" stop-color="#B90263" />
<stop offset="0.553443" stop-color="#015DC3" />
<stop offset="1" stop-color="#0AE2FF" />
</linearGradient>
<linearGradient id="paint15_linear_23166_37073" x1="4" y1="20" x2="18" y2="5" gradientUnits="userSpaceOnUse">
<stop offset="0.150205" stop-color="#B90263" />
<stop offset="0.553443" stop-color="#015DC3" />
<stop offset="1" stop-color="#0AE2FF" />
</linearGradient>
<linearGradient id="paint16_linear_23166_37073" x1="4" y1="20" x2="18" y2="5" gradientUnits="userSpaceOnUse">
<stop offset="0.150205" stop-color="#B90263" />
<stop offset="0.553443" stop-color="#015DC3" />
<stop offset="1" stop-color="#0AE2FF" />
</linearGradient>
<linearGradient id="paint17_linear_23166_37073" x1="4" y1="20" x2="18" y2="5" gradientUnits="userSpaceOnUse">
<stop offset="0.150205" stop-color="#B90263" />
<stop offset="0.553443" stop-color="#015DC3" />
<stop offset="1" stop-color="#0AE2FF" />
</linearGradient>
<linearGradient id="paint18_linear_23166_37073" x1="4" y1="20" x2="18" y2="5" gradientUnits="userSpaceOnUse">
<stop offset="0.150205" stop-color="#B90263" />
<stop offset="0.553443" stop-color="#015DC3" />
<stop offset="1" stop-color="#0AE2FF" />
</linearGradient>
<linearGradient id="paint19_linear_23166_37073" x1="4" y1="20" x2="18" y2="5" gradientUnits="userSpaceOnUse">
<stop offset="0.150205" stop-color="#B90263" />
<stop offset="0.553443" stop-color="#015DC3" />
<stop offset="1" stop-color="#0AE2FF" />
</linearGradient>
<linearGradient id="paint20_linear_23166_37073" x1="4" y1="20" x2="18" y2="5" gradientUnits="userSpaceOnUse">
<stop offset="0.150205" stop-color="#B90263" />
<stop offset="0.553443" stop-color="#015DC3" />
<stop offset="1" stop-color="#0AE2FF" />
</linearGradient>
<linearGradient id="paint21_linear_23166_37073" x1="4" y1="20" x2="18" y2="5" gradientUnits="userSpaceOnUse">
<stop offset="0.150205" stop-color="#B90263" />
<stop offset="0.553443" stop-color="#015DC3" />
<stop offset="1" stop-color="#0AE2FF" />
</linearGradient>
<linearGradient id="paint22_linear_23166_37073" x1="4" y1="20" x2="18" y2="5" gradientUnits="userSpaceOnUse">
<stop offset="0.150205" stop-color="#B90263" />
<stop offset="0.553443" stop-color="#015DC3" />
<stop offset="1" stop-color="#0AE2FF" />
</linearGradient>
<linearGradient id="paint23_linear_23166_37073" x1="4" y1="20" x2="18" y2="5" gradientUnits="userSpaceOnUse">
<stop offset="0.150205" stop-color="#B90263" />
<stop offset="0.553443" stop-color="#015DC3" />
<stop offset="1" stop-color="#0AE2FF" />
</linearGradient>
<linearGradient id="paint24_linear_23166_37073" x1="4" y1="20" x2="18" y2="5" gradientUnits="userSpaceOnUse">
<stop offset="0.150205" stop-color="#B90263" />
<stop offset="0.553443" stop-color="#015DC3" />
<stop offset="1" stop-color="#0AE2FF" />
</linearGradient>
<linearGradient id="paint25_linear_23166_37073" x1="4" y1="20" x2="18" y2="5" gradientUnits="userSpaceOnUse">
<stop offset="0.150205" stop-color="#B90263" />
<stop offset="0.553443" stop-color="#015DC3" />
<stop offset="1" stop-color="#0AE2FF" />
</linearGradient>
<linearGradient id="paint26_linear_23166_37073" x1="4" y1="20" x2="18" y2="5" gradientUnits="userSpaceOnUse">
<stop offset="0.150205" stop-color="#B90263" />
<stop offset="0.553443" stop-color="#015DC3" />
<stop offset="1" stop-color="#0AE2FF" />
</linearGradient>
<linearGradient id="paint27_linear_23166_37073" x1="4" y1="20" x2="18" y2="5" gradientUnits="userSpaceOnUse">
<stop offset="0.150205" stop-color="#B90263" />
<stop offset="0.553443" stop-color="#015DC3" />
<stop offset="1" stop-color="#0AE2FF" />
</linearGradient>
</defs>
</svg>