<?xml version="1.0" encoding="utf-8"?><svg width="24" height="24" viewBox="0 0 24 24" fill="none" xmlns="http://www.w3.org/2000/svg">
<g clip-path="url(#clip0_39662_12013)">
<path d="M12 24.0059C18.6274 24.0059 24 18.6333 24 12.0059C24 5.37844 18.6274 0.00585938 12 0.00585938C5.37258 0.00585938 0 5.37844 0 12.0059C0 18.6333 5.37258 24.0059 12 24.0059Z" fill="url(#paint0_linear_39662_12013)" />
<path fill-rule="evenodd" clip-rule="evenodd" d="M7.57527 4.83608L10.8274 11.2374C11.0183 11.2092 11.2133 11.1847 11.4126 11.1641V3.60192C10.011 3.69843 8.70459 4.13751 7.57527 4.83608ZM12.5882 3.60192V11.0903C12.7724 11.0859 12.9597 11.0846 13.1504 11.0866L16.4189 4.83195C15.291 4.13578 13.987 3.69824 12.5882 3.60192ZM17.3829 5.52517L14.4453 11.1466C14.5721 11.1561 14.7068 11.1667 14.8484 11.1784L19.4577 8.08303C18.9391 7.09951 18.2315 6.23071 17.3829 5.52517ZM19.938 9.17647L16.6829 11.3625C17.9064 11.5065 19.2732 11.7121 20.4249 11.9904C20.4231 11.0026 20.2515 10.0557 19.938 9.17647ZM17.156 12.6058C16.3661 12.5025 15.6011 12.4235 14.9535 12.3671C14.6276 12.3387 14.3342 12.3163 14.0857 12.2995C13.8809 12.2857 13.6802 12.2757 13.4836 12.2694C13.1529 12.2589 12.8337 12.2586 12.5258 12.2679C12.3601 12.2729 12.1977 12.2806 12.0384 12.291C11.9167 12.2989 11.7968 12.3083 11.6788 12.3191C11.4147 12.3435 11.1598 12.3751 10.9136 12.4132C10.8089 12.4295 10.7057 12.4469 10.6041 12.4655C10.3334 12.515 10.0737 12.5725 9.82485 12.6372C9.60069 12.6955 9.38781 12.7594 9.18561 12.8281C6.28821 13.8139 5.46391 15.854 5.17165 16.941C6.70311 19.0564 9.19137 20.4307 12.0004 20.4307C12.8539 20.4307 13.677 20.304 14.4524 20.0685C13.6417 19.2805 13.11 18.4706 12.872 17.6593C12.5591 16.5927 12.7726 15.58 13.4208 14.7351C14.0529 13.9112 15.0727 13.2754 16.3435 12.8448C16.6025 12.7571 16.8735 12.6772 17.156 12.6058ZM15.6722 19.5907C14.7108 18.7658 14.1951 17.9938 14 17.3285C13.796 16.6329 13.9265 16.0072 14.3535 15.4506C14.7968 14.8728 15.5835 14.3435 16.7208 13.9582C17.7003 13.6263 18.9111 13.4113 20.3171 13.358C19.8737 16.108 18.0982 18.414 15.6722 19.5907ZM4.38857 15.6212C4.87925 14.4832 5.8454 13.0612 7.82337 12.1146L4.04551 9.22537C3.74138 10.0954 3.5759 11.031 3.5759 12.0063C3.5759 13.3007 3.8675 14.5261 4.38857 15.6212ZM4.52701 8.11375L9.10899 11.6179C9.24561 11.5763 9.38565 11.5368 9.52923 11.4995C9.56241 11.4908 9.59565 11.4824 9.62913 11.474L6.61011 5.53163C5.75623 6.24331 5.04541 7.12063 4.52701 8.11375ZM6.47523 4.15468C8.03775 3.05324 9.94437 2.40625 12.0004 2.40625C14.0557 2.40625 15.9617 3.0528 17.524 4.15357C18.9155 5.13408 20.0349 6.47533 20.7462 8.04223C21.2951 9.25135 21.6004 10.5939 21.6004 12.0063C21.6004 12.2721 21.5896 12.5354 21.5684 12.796L21.5676 12.8056C21.2704 16.4076 18.9861 19.4436 15.8156 20.818C14.6455 21.3253 13.355 21.6063 12.0004 21.6063C8.69229 21.6063 5.7753 19.9325 4.04988 17.3883C3.00869 15.8531 2.40039 13.9998 2.40039 12.0063C2.40039 10.5954 2.70512 9.25411 3.25291 8.04595C3.96381 6.47803 5.08331 5.13587 6.47523 4.15468Z" fill="white" />
</g>
<defs>
<linearGradient id="paint0_linear_39662_12013" x1="0" y1="12.0059" x2="24" y2="12.0059" gradientUnits="userSpaceOnUse">
<stop stop-color="#0085FF" />
<stop offset="1" stop-color="#B440FC" />
</linearGradient>
<clipPath id="clip0_39662_12013">
<rect width="24" height="24" fill="white" transform="translate(0 0.00585938)" />
</clipPath>
</defs>
</svg>