<?xml version="1.0" encoding="utf-8"?><svg width="24" height="24" viewBox="0 0 24 24" fill="none" xmlns="http://www.w3.org/2000/svg">
<g clip-path="url(#clip0_44176_82395)">
<path fill-rule="evenodd" clip-rule="evenodd" d="M12 24.0054C5.4 24.0054 0 18.6054 0 11.9454C0.06 5.34538 5.4 -0.054622 12.06 0.00537803C18.66 0.065378 24 5.40538 24 12.1254C23.94 18.6654 18.6 24.0054 12 24.0054Z" fill="#0090FF" />
<path fill-rule="evenodd" clip-rule="evenodd" d="M13.1402 10.5654L12.7802 12.4854L16.2002 12.9654L15.9602 13.8654L12.6002 13.3854C12.3602 14.1654 12.2402 15.0054 11.9402 15.7254C11.6402 16.5654 11.3402 17.4054 10.9802 18.1854C10.5002 19.2054 9.66023 19.9254 8.52023 20.1054C7.86023 20.2254 7.14023 20.1654 6.60023 19.7454C6.42023 19.6254 6.24023 19.3854 6.24023 19.2054C6.24023 18.9654 6.36023 18.6654 6.54023 18.5454C6.66023 18.4854 6.96023 18.5454 7.14023 18.6054C7.32023 18.7854 7.50023 19.0254 7.62023 19.2654C7.98023 19.7454 8.46023 19.8054 8.94023 19.4454C9.48023 18.9654 9.78023 18.3054 9.96023 17.6454C10.3202 16.2054 10.6802 14.8254 10.9802 13.3854V13.1454L7.80023 12.6654L7.92023 11.7654L11.2202 12.2454L11.6402 10.3854L8.22023 9.84537L8.34023 8.88537L11.8802 9.36537C12.0002 9.00537 12.0602 8.70537 12.1802 8.40537C12.4802 7.32537 12.7802 6.24537 13.5002 5.28537C14.2202 4.32537 15.0602 3.72537 16.3202 3.78537C16.8602 3.78537 17.4002 3.96537 17.7602 4.38537C17.8202 4.44537 17.9402 4.56537 17.9402 4.68537C17.9402 4.92537 17.9402 5.22537 17.7602 5.40537C17.5202 5.58537 17.2202 5.52537 16.9802 5.28537C16.8002 5.10537 16.6802 4.92537 16.5002 4.74537C16.1402 4.26537 15.6002 4.20537 15.1802 4.62537C14.8802 4.92537 14.5802 5.34537 14.4002 5.76537C13.9802 7.02537 13.6802 8.34537 13.2602 9.66537L16.5602 10.1454L16.3202 11.0454L13.1402 10.5654Z" fill="white" />
</g>
<defs>
<clipPath id="clip0_44176_82395">
<rect width="24" height="24" fill="white" transform="translate(0 0.00585938)" />
</clipPath>
</defs>
</svg>